<svg xmlns="http://www.w3.org/2000/svg" width="80" height="80" viewBox="0 0 80 80" fill="none">
  <rect width="80" height="80" rx="16" fill="#0052FF"/>
  <path d="M40 16C26.745 16 16 26.745 16 40C16 53.255 26.745 64 40 64C53.255 64 64 53.255 64 40C64 26.745 53.255 16 40 16ZM40 22C46.627 22 52 27.373 52 34C52 40.627 46.627 46 40 46C33.373 46 28 40.627 28 34C28 27.373 33.373 22 40 22ZM40 58C33.318 58 27.318 54.772 23.636 49.636C27.382 46.273 33.382 44 40 44C46.618 44 52.618 46.273 56.364 49.636C52.682 54.772 46.682 58 40 58Z" fill="white"/>
  <path d="M40 28C36.686 28 34 30.686 34 34C34 37.314 36.686 40 40 40C43.314 40 46 37.314 46 34C46 30.686 43.314 28 40 28Z" fill="#0052FF"/>
</svg> 